<svg width="1320" height="1100" viewBox="0 0 1320 1100" fill="none" xmlns="http://www.w3.org/2000/svg">
<path d="M660 1003.95C963.039 1003.95 1208.7 1001.24 1208.7 997.907C1208.7 994.572 963.039 991.869 660 991.869C356.961 991.869 111.3 994.572 111.3 997.907C111.3 1001.24 356.961 1003.95 660 1003.95Z" fill="#443D3C"/>
<path d="M1006.84 745.426L1084.85 999.251H1100.73L1043.45 761.917H1043.41L1034.29 724.06L1000.11 723.605L1006.8 745.426H1006.84Z" fill="#474242"/>
<path d="M708.452 999.251L790.79 761.917L805.536 719.364L807.664 713.223L773.576 712.769L771.955 718.66L766.076 739.888L694.442 999.251H708.452Z" fill="#474242"/>
<path d="M958.309 736.886L1012.14 999.251H1023.83L994.234 766.158L988.735 722.854L987.411 712.621L953.236 712.121L955.281 722.158L958.309 736.886Z" fill="#474242"/>
<path d="M791.461 999.251L856.119 774.293L871.418 721.103L837.28 720.662L833.704 736.886L775.941 999.251H791.461Z" fill="#474242"/>
<path d="M771.318 719.505L805.008 719.914L790.79 756.382L766.076 736.802L771.908 717.933L771.318 719.505Z" fill="#1B2021"/>
<path d="M837.28 719.713L871.418 720.106L856.119 767.38L833.704 734.134L837.28 719.713Z" fill="#1B2021"/>
<path d="M988.735 721.662L994.234 760.151L958.309 734.134L955.281 721.044L988.735 721.662Z" fill="#1B2021"/>
<path d="M1043.45 756.382H1043.41L1006.84 741.724H1006.8L1000.11 722.327L1034.29 722.732L1043.45 756.382Z" fill="#1B2021"/>
<path d="M1109.54 448.668C1104.13 495.697 1047.16 605.866 1019.37 657.434C1011.4 672.208 1022.74 701.392 1021.46 703.684C1021.25 704.01 1003.07 689.888 1003.07 689.888L833.703 682.76L834.209 677.281C837.664 662.921 858.082 579.059 880.323 515.303C890.553 485.877 901.163 460.69 910.66 448.669C950.041 398.722 1114.66 404.504 1109.54 448.668Z" fill="#636060"/>
<path d="M1013.73 693.366L997.062 685.335C997.062 685.335 798.721 647.028 758.991 690.33C758.898 690.43 758.836 690.567 758.784 690.717L1013.73 693.366Z" fill="white"/>
<path d="M937.578 470.728C937.61 470.684 937.638 470.637 937.67 470.594C937.625 470.618 937.58 470.647 937.535 470.67C937.161 470.949 937.175 470.968 937.578 470.728Z" fill="#181818"/>
<path d="M894.301 511.074C894.304 511.124 894.311 511.176 894.312 511.229C894.631 511.571 894.648 511.555 894.367 511.185C894.344 511.147 894.323 511.11 894.301 511.074Z" fill="#12140C"/>
<path d="M914.869 634.68C913.764 638.218 913.555 638.363 914.869 634.68Z" fill="#2F395B"/>
<path d="M819.519 970.94C819.581 970.921 818.465 959.097 818.289 958.596C817.464 956.21 818.049 932.69 818.331 927.372L788.435 920.931C789.722 923.755 789.062 945.3 788.798 952.101C788.673 955.26 788.411 958.448 788.017 961.276C788.392 961.23 788.802 961.18 789.229 961.128C791.295 960.89 819.517 970.931 819.519 970.94Z" fill="#FFA471"/>
<path d="M820.945 995.688L820.944 995.8C820.954 996.178 820.848 997.223 820.827 997.296C820.817 997.315 741.526 1009.47 741.223 995.516C740.857 978.759 772.407 981.42 785.513 964.674C789.922 959.04 786.986 944.775 796.17 945.239C807.67 945.819 810.691 958.909 818.509 959.76C823.286 966.038 820.869 994.24 820.896 994.686C820.929 995.041 820.949 995.376 820.945 995.688Z" fill="#080C16"/>
<path d="M1083.38 349.018C1082.73 353.882 1067.21 407.697 1054.02 452.497C1051.81 459.974 1049.67 467.201 1047.68 473.908C1043.52 487.898 1039.99 499.621 1037.82 506.632C1031.08 528.388 1027.52 552.835 1025.6 576.016C1025.35 579.005 1025.13 581.977 1024.94 584.91C1022.43 622.258 1023.78 654.855 1022.22 665.337C1019.58 666.457 997.884 668.99 976.57 670.071C967.467 670.528 958.437 670.721 950.985 670.425C943.974 665.792 937.114 660.961 930.72 656.048C924.157 651.016 918.076 645.896 912.795 640.84L912.772 640.816C912.788 640.808 912.795 640.808 912.812 640.8C913.525 640.497 914.278 640.399 915.056 640.551C916.281 638.933 921.417 637.363 927.556 635.88C936.755 633.637 948.205 631.578 952.035 629.767C968.005 622.211 976.042 611.633 984.72 596.442C1003.28 563.973 1012.89 529.742 1022.31 493.651C1029.86 464.701 1040.59 436.559 1051.76 408.915C1060.06 388.362 1078.5 358.65 1080.93 338.987C1083.42 341.013 1084.16 343.401 1083.38 349.018Z" fill="#181D2D"/>
<path d="M988.758 721.61H1067.12L1067 722.452L988.734 721.658C988.734 721.658 988.743 721.643 988.758 721.61Z" fill="white"/>
<path d="M1088.45 331.246C1087.79 336.11 1067.2 407.697 1054.02 452.497C1051.81 459.974 1049.67 467.201 1047.68 473.908C1043.52 487.898 1039.99 499.621 1037.82 506.632C1031.08 528.388 1027.52 552.835 1025.6 576.016C1025.35 579.005 1025.13 581.977 1024.94 584.91C1022.43 622.258 1023.78 654.855 1022.22 665.337C1019.58 666.457 997.884 668.99 976.57 670.071C967.467 670.528 958.437 670.721 950.985 670.425C941.089 670.04 933.965 668.797 933.148 666.17C932.299 663.438 931.481 659.968 930.72 656.049C929.533 650.008 928.468 642.917 927.555 635.881C925.295 618.542 923.925 601.578 923.925 601.587C919.381 618.157 915.824 631.235 912.811 640.801C912.803 640.817 912.803 640.834 912.795 640.842C910.151 649.256 907.916 654.952 905.784 657.934C867.626 656.707 837.298 652.685 838.909 640.889C841.513 621.851 852.21 585.721 861.473 553.838C861.882 552.444 862.282 551.057 862.675 549.688C869.014 527.828 874.445 508.469 875.784 498.758C881.328 458.565 880.848 443.052 879.142 427.507C878.397 420.584 877.395 413.653 876.585 404.526C874.117 376.689 881.13 326.302 882.379 325.535C891.333 320.032 922.85 301.869 943.373 291.554L1019.25 289.309C1021.67 290.367 1049.15 302.512 1054.26 306.142C1064.37 313.326 1089.23 325.63 1088.45 331.246Z" fill="#2D385E"/>
<path d="M986.921 326.927C980.236 317.483 970.316 318.463 960.851 320.661L942.751 323.516C930.182 347.675 935.181 493.595 940.179 504.088C940.438 504.637 943.611 495.815 943.635 496.436C950.33 479.095 983.445 373.907 987.81 361.747C992.63 348.328 996.094 339.891 986.921 326.927Z" fill="#F2F0DF"/>
<path d="M970.54 315.019L963.208 314.93C960.217 317.614 953.388 322.776 952.478 327.023C951.74 330.477 955.773 338.459 958.974 341.351C966.425 348.08 981.099 331.583 985.638 324.582C982.441 319.233 975.502 317.506 970.54 315.019Z" fill="#AA2643"/>
<path d="M1014.83 287.734C1016.45 291.297 990.908 302.728 962.78 313.617C952.055 317.768 947.464 321.065 947.464 321.065C941.881 313.068 944.901 298.095 947.64 289.528C947.689 289.371 947.846 289.277 947.944 289.162C947.206 281.687 946.059 273.595 944.992 265.69C944.162 259.611 943.407 253.652 942.941 248.151L986.379 223.255L996.654 217.358C995.959 226.015 1006.46 269.317 1014.83 287.734Z" fill="#FFA471"/>
<path d="M996.653 217.358C995.959 226.015 997.455 225.849 1000.44 239.498C997.864 250.614 996.567 263.936 981.61 284.771C970.261 300.581 958.106 297.592 949.911 290.626C949.392 290.185 948.495 290.016 947.64 289.529C947.741 289.398 947.846 289.278 947.944 289.163C947.206 281.688 946.059 273.596 944.992 265.691L986.379 223.256L996.653 217.358Z" fill="#E07F4F"/>
<path d="M1020.87 289.178C1020.14 284.14 1012.06 275.155 1008.45 270.348C998.001 281.803 973.813 306.445 963.301 311.038L964.841 315.852C974.226 315.209 992.5 348.804 995.492 354.512C1008.05 347.052 1021.6 294.167 1020.87 289.178Z" fill="#FFFDE9"/>
<path d="M933.533 549.998L928.725 474.677L960.512 337.146L968.436 337.962L955.97 481.889L933.533 549.998Z" fill="#AA2643"/>
<path d="M947.254 288.478C939.422 294.471 939.445 294.559 931.757 300.761C935.203 316.078 927.598 336.544 937.613 348.552C945.297 343.865 957.329 319.053 964.842 315.852L966.24 310.757C955.602 303.844 950.289 301.724 947.254 288.478Z" fill="#FFFDE9"/>
<path d="M1017.47 317.197L1032.42 334.079C1032.42 334.079 953.565 473.074 931.13 570.03C930.938 570.863 937.54 493.106 963.809 427.111C990.614 359.769 1011.53 273.553 1011.53 273.553L1054.26 306.138L1019.42 317.318L1017.47 317.197Z" fill="#405389"/>
<path d="M932.732 579.645C932.397 578.936 913.456 335.847 913.456 335.847C913.456 335.847 923.868 327.265 929.631 320.331C924.612 316.53 921.101 308.793 915.372 306.139C921.243 302.691 933.534 294.386 943.372 291.551C943.372 291.551 932.764 579.7 932.732 579.645Z" fill="#405389"/>
<path d="M626.22 822.427C626.286 822.454 633.031 811.241 633.208 810.679C634.04 808.021 634.923 805.375 635.854 802.812C638.571 795.364 641.729 788.604 645.449 784.08L620.944 770.005C620.224 773.365 616.202 779.543 611.524 785.387C609.351 788.102 607.039 790.749 604.843 792.994C605.204 793.204 605.59 793.433 606.004 793.664C607.976 794.815 626.222 822.416 626.22 822.427Z" fill="#FFA471"/>
<path d="M537.675 806.955C536.522 812.996 592.789 835.374 608.492 842.073C612.417 843.752 616.914 846.106 621.118 847.01C621.175 846.942 621.77 845.956 621.936 845.58L621.991 845.466C622.14 845.153 622.275 844.813 622.433 844.404C622.595 843.982 636.091 815.454 634.277 806.963C615.294 811.611 628.006 788.005 616.261 783.248C609.736 780.605 607.415 788.785 603.571 792.643C595.728 800.518 582.98 800.553 572.677 797.748C537.827 788.257 537.707 806.79 537.675 806.955Z" fill="#080C16"/>
<path d="M607.098 771.115C626.543 789.746 646.798 796.224 646.798 796.224C646.798 796.224 730.931 687.025 780.61 623.638C857.867 677.292 1002.7 743.53 1020.67 672.046C1021.95 666.975 1023.32 641.085 1023.24 634.572C1023.24 634.572 814.319 538.213 749.218 534.789C715.397 533.007 662.217 659.032 629.714 728.652C619.954 749.548 612.052 765.362 607.098 771.115Z" fill="#1B2135"/>
<path d="M607.098 771.115C626.543 789.746 646.798 796.224 646.798 796.224C646.798 796.224 730.931 687.025 780.61 623.638C857.867 677.292 1002.7 743.53 1020.67 672.046C1019.25 674.062 1017.67 675.868 1015.77 677.136C1007.78 682.467 995.066 683.837 985.733 683.859C963.291 683.908 940.861 676.702 919.656 669.007C876.312 653.263 839.514 622.751 799.962 599.606C781.479 588.79 761.225 580.543 739.82 581.24C752.772 581.31 774.403 594.682 773.874 608.946C764.778 603.724 735.175 710.865 629.713 728.652C619.954 749.548 612.052 765.362 607.098 771.115Z" fill="#111623"/>
<path d="M893.469 320.027C867.827 314.418 863.419 366.808 859.819 386.628C855.324 411.36 848.521 423.916 844.212 448.662C838.46 481.699 871.263 473.251 886.183 456.614C904.074 436.665 918.739 406.019 922.914 379.732C923.058 378.823 923.24 377.621 923.356 377.063L893.469 320.027Z" fill="#2D385E"/>
<path d="M1130.65 518.747C1130.62 520.229 1130.51 521.664 1130.32 523.058C1125.96 556.327 1080.39 564.484 1072.96 553.202C1068.55 546.503 1065.19 525.902 1062.67 507.497C1060.92 494.844 1059.58 483.225 1058.53 477.881C1055.14 460.405 1054.64 445.621 1051.32 428.201C1048.25 412.079 1051.95 384.338 1049.72 368.905L1061.74 311.212C1100.2 312.013 1106.73 354.994 1109.02 377.719C1111.64 403.755 1130.92 506.728 1130.65 518.747Z" fill="#2D385E"/>
<path d="M1130.32 523.059C1125.96 556.328 1080.39 564.485 1072.96 553.203C1068.55 546.504 1065.19 525.903 1062.67 507.498L1093.79 485.093C1090.82 494.341 1114.78 500.808 1120.19 505.286C1124.7 509.011 1128.46 515.87 1130.32 523.059Z" fill="#1B2135"/>
<path d="M1056.54 373.285C1060.26 385.443 1061.2 452.898 1061.2 467.732L1071.62 472.54C1072.18 456.56 1063.93 386.612 1056.54 373.285Z" fill="#1B2135"/>
<path d="M911.477 176.037L890.271 172.369C890.97 182.831 888.455 191.959 892.296 202.671C895.547 211.737 904.679 222.596 912.031 227.263C904.292 212.894 905.179 190.607 911.477 176.037Z" fill="#442424"/>
<path d="M989.78 167.712C980.76 153.458 962.1 140.245 945.627 137.849C935.467 136.373 927.382 139.558 920.223 146.48C915.252 151.288 906.838 157.519 903.847 163.644L901.603 176.45C891.335 189.828 908.25 224.1 910.831 238.788C913.839 255.909 932.328 286.546 941.595 291.478C948.8 295.307 958.817 294.713 969.395 288.981C989.402 278.126 994.986 254.304 997.859 243.696C1003.09 224.353 1000.79 185.106 989.78 167.712Z" fill="#FFA471"/>
<path d="M938.191 252.227C941.285 249.877 939.085 232.867 937.161 229.23C937.161 229.23 936.822 250.979 934.358 254.653C938.149 256.398 955.097 255.643 956.239 252.093C954.442 250.846 944.831 249.841 938.191 252.227Z" fill="#E07F4F"/>
<path d="M918.472 220.707C913.311 221.437 911.767 227.076 912.066 231.585L912.778 235.913C918.029 237.499 922.844 236.419 928.286 234.188C927.629 225.307 923.82 219.947 918.472 220.707Z" fill="#E07F4F"/>
<path d="M912.535 235.995C912.679 236.032 912.811 236.078 912.949 236.112C916.653 237.131 920.265 236.804 923.991 235.716C925.402 235.304 926.833 234.788 928.288 234.195C927.275 230.775 925.446 226.395 921.952 225.245C921.122 224.972 920.202 224.883 919.184 225.036C916.175 225.463 914.401 227.558 913.503 230.118C912.857 231.935 912.656 233.995 912.783 235.866L912.784 235.912L912.535 235.995Z" fill="white"/>
<path d="M912.783 235.867C912.837 235.951 912.89 236.032 912.949 236.112C916.653 237.131 920.265 236.804 923.991 235.716C923.734 232.136 922.933 228.044 922.09 225.637C922.051 225.507 922.002 225.38 921.952 225.246C921.122 224.973 920.202 224.884 919.184 225.037C916.175 225.464 914.401 227.559 913.503 230.119C912.857 231.935 912.655 233.996 912.783 235.867Z" fill="#260B09"/>
<path d="M917.394 230.833C917.695 231.691 917.512 232.541 916.984 232.728C916.45 232.915 915.776 232.368 915.474 231.507C915.172 230.648 915.358 229.796 915.888 229.612C916.416 229.425 917.087 229.971 917.394 230.833Z" fill="white"/>
<path d="M961.322 212.236C955.116 213.336 952.899 219.218 952.948 223.811L953.502 228.193C959.665 229.466 965.478 228.028 972.116 225.383C971.934 216.332 967.754 211.099 961.322 212.236Z" fill="#E07F4F"/>
<path d="M953.218 228.297C954.049 228.469 954.885 228.591 955.725 228.658C959.45 228.986 963.181 228.375 967.047 227.185C968.71 226.682 970.398 226.072 972.123 225.378C971.146 221.957 969.257 217.593 965.163 216.657C964.201 216.433 963.114 216.401 961.884 216.621C958.268 217.26 956.005 219.526 954.76 222.21C954.483 222.791 954.259 223.401 954.083 224.009C953.673 225.411 953.502 226.859 953.51 228.191L953.218 228.297Z" fill="white"/>
<path d="M954.081 224.01C954.514 225.829 955.079 227.367 955.724 228.659C959.449 228.987 963.18 228.376 967.046 227.186C966.889 223.54 966.141 219.425 965.309 217.045C965.262 216.913 965.221 216.779 965.162 216.658C964.2 216.434 963.113 216.402 961.883 216.622C958.267 217.261 956.004 219.527 954.759 222.211C954.482 222.791 954.257 223.402 954.081 224.01Z" fill="#260B09"/>
<path d="M959.303 223.538C959.605 224.396 959.331 225.284 958.683 225.51C958.047 225.738 957.274 225.225 956.971 224.364C956.67 223.499 956.947 222.62 957.588 222.398C958.238 222.163 959 222.679 959.303 223.538Z" fill="white"/>
<path d="M923.989 206.364C916.966 207.102 901.127 209.353 899.842 217.112L903.864 222.678C907.541 218.974 921.444 217.599 926.477 218.503C925.987 214.468 925.06 210.291 923.989 206.364Z" fill="#260B09"/>
<path d="M990.194 127.82C990.178 127.844 990.163 127.87 990.147 127.896C990.175 127.88 990.202 127.859 990.231 127.843C990.551 127.387 990.541 127.378 990.194 127.82Z" fill="#442424"/>
<path d="M1003.72 162.3C1005.87 173.943 1005.32 185.799 1005.11 193.5C1005.1 193.514 1005.1 193.52 1005.1 193.526C1005.05 195.441 1005.02 197.103 1005.06 198.434C1005.06 198.687 1005.07 198.937 1005.09 199.182C1005.11 199.507 1005.11 199.827 1005.11 200.147C1005.11 200.4 1005.1 200.657 1005.09 200.906C1005.07 201.19 1005.05 201.468 1005.02 201.755C1004.99 202.034 1004.96 202.313 1004.91 202.589C1004.87 202.844 1004.83 203.085 1004.78 203.335C1004.77 203.362 1004.77 203.396 1004.77 203.425C1003.97 207.153 1002.04 209.846 1001.24 212.788C1000.69 214.801 1000.66 216.924 1001.88 219.564L991.048 224.49C986.099 223.3 977.195 185.729 975.834 181.864C968.673 161.492 947.964 176.489 940.824 178.891C940.81 178.893 940.799 178.903 940.79 178.895C940.481 178.992 940.186 179.068 939.921 179.137C933.015 180.865 926.86 182.074 921.356 182.85L921.33 182.854C893.833 186.752 882.969 179.857 878.835 172.549C877.574 170.324 876.937 168.055 876.644 166.045C876.11 162.314 876.761 159.469 876.811 159.379C881.316 151.2 910.831 139.787 927.052 134.743C978.023 118.883 996.407 135.093 1002.45 156.749C1002.46 156.756 1002.46 156.756 1002.46 156.756C1002.96 158.572 1003.38 160.425 1003.72 162.3Z" fill="#442424"/>
<path d="M1001.17 156.605C1001.2 156.618 1001.23 156.63 1001.25 156.643C1002.02 156.464 1002.02 156.427 1001.23 156.535C1001.21 156.558 1001.2 156.582 1001.17 156.605Z" fill="#442424"/>
<path d="M991.746 132.676C992.673 129.706 994.205 127.192 995.974 124.831C991.855 124.964 989.15 126.758 986.172 129.246C980.571 126.38 976.224 121.514 969.912 120.255C971.761 123.085 975.311 129.018 974.646 131.975L990.718 143.039C994.155 140.034 1001.53 137.206 1006.32 137.335C1001.68 135.47 996.438 134.364 991.746 132.676Z" fill="#442424"/>
<path d="M1003.72 162.3C1005.87 173.943 1005.32 185.799 1005.11 193.5C1005.1 193.514 1005.1 193.52 1005.1 193.526C1005.05 195.441 1005.02 197.103 1005.05 198.434C1005.06 198.687 1005.07 198.937 1005.09 199.182C1005.11 199.507 1005.11 199.827 1005.11 200.147C1005.11 200.4 1005.1 200.657 1005.09 200.906C1005.07 201.19 1005.05 201.468 1005.02 201.755C1004.99 202.034 1004.95 202.313 1004.91 202.589C1004.87 202.844 1004.83 203.085 1004.78 203.335C1004.77 203.362 1004.77 203.396 1004.77 203.425C1003.97 207.153 1002.04 209.846 1001.24 212.788C1000.69 214.801 1000.74 221.839 1001.96 224.48L990.998 227.839C986.049 226.648 977.196 185.729 975.834 181.864C968.673 161.492 947.964 176.489 940.824 178.891C940.81 178.893 940.799 178.903 940.79 178.895C940.481 178.992 940.186 179.068 939.921 179.137C933.015 180.865 926.86 182.074 921.356 182.85L921.33 182.854C893.833 186.752 882.969 179.857 878.835 172.549C877.574 170.324 876.937 168.055 876.644 166.045C877.875 167.636 879.187 169.176 880.631 170.2C884.98 173.279 891.896 174.695 897.097 175.179C909.133 176.286 921.765 173.08 933.609 170.28C943.985 167.823 955.098 160.835 965.73 160.491C975.698 160.169 980.031 168.59 984.161 175.503C985.901 178.416 987.067 182.417 991.171 181.706C995.125 181.023 995.716 176.746 995.507 173.409C995.088 166.745 992.133 155.621 988.017 150.485C992.961 154.284 995.883 159.55 998.217 164.959C1001.3 163.406 1002.32 160.269 1002.46 156.755C1002.96 158.572 1003.38 160.425 1003.72 162.3Z" fill="#1E1010"/>
<path d="M1004.38 198.791C998.692 201.21 996.157 207.965 995.431 214.931L995.208 223.085C996.907 228.401 999.152 238.354 1006.29 232.964C1012.54 228.24 1013.77 219.094 1014.01 211.966C1014.21 205.724 1013.34 194.981 1004.38 198.791Z" fill="#FFA471"/>
<path d="M1009.81 207.617C1009.63 203.95 1005.69 201.125 1002.42 202.72C999.523 204.137 998.5 209.72 998.251 212.388C1006.69 206.529 1002.63 227.975 999.404 224.109L998.887 225.161C1006.38 229.883 1013.63 209.177 1001.47 209.319C1003.33 206.464 1007.31 204.165 1009.81 207.617Z" fill="#E07F4F"/>
<path d="M943.877 202.21C952.116 199.567 970.951 194.167 976.052 200.938L974.172 208.139C968.291 206.377 952.042 211.675 946.829 214.934C945.471 210.867 944.54 206.451 943.877 202.21Z" fill="#260B09"/>
<path d="M934.218 264.261C936.704 267.385 939.081 269.696 941.335 271.328C959.315 284.351 969.905 254.804 969.905 254.804C960.727 260.603 947.911 262.905 940.023 263.785C937.484 264.069 935.456 264.204 934.218 264.261Z" fill="#E07F4F"/>
<path d="M940.022 263.785C940.658 265.686 941.053 267.667 941.232 269.767C941.282 270.333 941.312 270.849 941.334 271.328C959.314 284.351 969.904 254.804 969.904 254.804C960.726 260.603 947.911 262.904 940.022 263.785Z" fill="white"/>
<path d="M1071.14 550.521C1070.07 552.883 1068.98 555.29 1067.86 557.746C1045.58 606.552 1021.01 656.849 1005.26 688.628C995.561 708.196 989.198 720.744 988.758 721.609H1067.12L1068.66 711.754L1092.81 556.413C1084.99 556.954 1077.39 555.411 1071.14 550.521Z" fill="#A5A5A5"/>
<path d="M758.171 691.161L1005.26 688.628C995.562 708.196 989.199 720.744 988.759 721.609H760.199L758.171 691.161Z" fill="#898686"/>
<path d="M1068.66 711.755L1067.86 721.61H1067.12L1068.66 711.755Z" fill="#D1BFBF"/>
<path d="M922.315 689.422C874.337 673.431 819.433 638.489 819.433 638.489C774.064 616.885 763.891 617.536 748.292 635.723C731.21 655.642 747.911 701.153 751.496 724.888C759.429 777.42 774.69 890.195 782.855 937.443L823.755 937.021C831.769 858.494 846.008 769.201 822.835 692.443C854.205 689.422 924.719 690.223 922.315 689.422Z" fill="#1B2135"/>
<path d="M1036.35 435.99L777.042 449.436L741.592 371.254L743.307 341.559L744.565 319.642L745.294 307.071L829.213 385.589L1034.21 359.82L1034.51 370.573L1035.03 389.082L1036.35 435.99Z" fill="#FCF9F0"/>
<path d="M1035.03 389.082L1032.09 395.349L820.551 406.567L743.307 341.559L744.565 319.642L827.058 389.218L1034.51 370.573L1035.03 389.082Z" fill="#99928D"/>
<path d="M1073.15 452.099C1069.2 449.331 1061.15 448.822 1055.36 448.025C1051.67 447.515 1037.81 448.751 1038.02 455.684C1038.14 459.881 1055.21 459.437 1059.46 460.012L1088.25 470.814C1087.68 467.651 1076.76 454.619 1073.15 452.099Z" fill="#FFA471"/>
<path d="M741.69 379.741C736.57 378.869 726.2 378.021 721.409 380.99C715.108 384.892 717.601 394.546 723.193 393.358L725.738 393.026C733.589 392.507 763.753 383.492 741.69 379.741Z" fill="#FFA471"/>
<path d="M767.814 413.296L725.772 417.562C715.34 434.235 729.605 452.56 747.937 456.176C771.109 460.748 778.925 430.982 767.814 413.296Z" fill="#FFA471"/>
<path d="M1094.76 611.826L852.253 593.86L850.816 593.757C850.816 593.757 814.116 563.177 775.482 543.764C759.05 535.512 740.191 457.694 735.717 429.389C733.628 416.196 728.774 391.197 724.091 367.809C724.015 367.443 723.941 367.076 723.867 366.708C718.308 338.939 713.048 313.746 713.048 313.746L827.055 389.221L828.091 389.907L1043 381.534L1051.71 420.279L1051.89 421.093L1094.76 611.826Z" fill="#FCF9F0"/>
<path d="M895.893 423.569L894.281 399.738L897.639 399.511L906.092 411.05C908.049 413.723 909.598 416.141 910.894 418.505L910.962 418.465C910.464 415.303 910.198 412.407 909.947 408.695L909.271 398.724L912.172 398.527L913.784 422.359L910.673 422.57L902.288 410.989C900.447 408.45 898.671 405.836 897.293 403.334L897.191 403.377C897.571 406.371 897.835 409.231 898.103 413.19L898.793 423.373L895.893 423.569Z" fill="#99928D"/>
<path d="M930.741 409.987L921.477 410.614L922.059 419.208L932.382 418.509L932.557 421.089L919.157 421.995L917.545 398.166L930.415 397.293L930.59 399.874L920.796 400.538L921.305 408.069L930.568 407.443L930.741 409.987Z" fill="#99928D"/>
<path d="M940.761 420.534L933.102 397.111L936.354 396.891L939.999 408.757C940.907 411.68 941.744 414.605 942.324 416.875L942.394 416.87C942.623 414.476 943.175 411.595 943.78 408.466L946.148 396.228L949.368 396.01L953.085 407.905C953.947 410.689 954.776 413.475 955.299 415.962L955.37 415.956C955.688 413.306 956.181 410.609 956.722 407.59L959.056 395.353L962.203 395.14L957.062 419.427L953.846 419.646L949.999 407.44C949.052 404.448 948.397 402.149 947.916 399.767L947.846 399.772C947.58 402.169 947.208 404.539 946.534 407.675L943.979 420.315L940.761 420.534Z" fill="#99928D"/>
<path d="M966.106 415.054C967.543 415.81 969.605 416.38 971.727 416.235C974.874 416.022 976.6 414.236 976.436 411.831C976.286 409.605 974.927 408.418 971.627 407.397C967.644 406.281 965.104 404.428 964.876 401.071C964.625 397.356 967.514 394.391 972.146 394.077C974.584 393.913 976.392 394.359 977.493 394.888L976.814 397.457C976.008 397.084 974.368 396.484 972.213 396.63C968.96 396.85 967.854 398.88 967.963 400.506C968.113 402.733 969.638 403.732 973.012 404.781C977.147 406.066 979.33 407.871 979.568 411.371C979.817 415.05 977.309 418.414 971.688 418.796C969.389 418.951 966.834 418.449 965.504 417.687L966.106 415.054Z" fill="#99928D"/>
<path d="M852.253 593.86L850.816 593.757L760.203 535.004C760.203 535.004 740.191 457.694 735.717 429.389C731.11 400.288 713.048 313.746 713.048 313.746L827.055 389.221C827.361 417.019 835.058 446.388 839.672 474.082C846.016 512.217 853.951 550.503 852.392 589.27C852.33 590.777 852.289 592.306 852.253 593.86Z" fill="#E8E5DD"/>
<path d="M1051.89 421.093L830.325 432.199L830.219 432.135L724.092 367.809C724.016 367.443 723.942 367.076 723.868 366.708L830.532 431.363L1051.71 420.279L1051.89 421.093Z" fill="#99928D"/>
<path d="M738.43 364.354L735.879 343.548L738.259 345.116L745.135 359.389C746.736 362.705 748.028 365.586 749.134 368.287L749.18 368.289C748.61 365.351 748.224 362.758 747.785 359.475L746.559 350.604L748.643 351.987L751.508 373.122L749.218 371.581L742.366 357.288C740.873 354.162 739.424 351.012 738.271 348.172L738.2 348.151C738.668 350.882 739.037 353.43 739.471 356.897L740.534 365.76L738.43 364.354Z" fill="#99928D"/>
<path d="M763.234 372.022L756.396 367.413L757.455 375.06L765.144 380.268L765.471 382.574L755.479 375.803L752.518 354.568L761.885 360.831L762.249 363.179L755.092 358.38L756.076 365.139L762.894 369.727L763.234 372.022Z" fill="#99928D"/>
<path d="M771.651 386.784L763.854 362.153L766.247 363.761L770.073 376.163C771.018 379.216 771.905 382.23 772.537 384.527L772.591 384.561C772.561 382.621 772.725 380.436 772.9 378.057L773.49 368.651L775.885 370.274L779.913 382.892C780.843 385.834 781.746 388.757 782.383 391.236L782.436 391.271C782.431 389.139 782.547 387.059 782.662 384.715L783.14 375.199L785.511 376.814L784.064 395.293L781.599 393.597L777.517 380.709C776.506 377.542 775.783 375.147 775.181 372.775L775.127 372.738C775.168 374.702 775.121 376.571 774.908 378.936L774.084 388.449L771.651 386.784Z" fill="#99928D"/>
<path d="M790.658 396.786C791.854 398.301 793.522 400.031 795.168 401.17C797.614 402.863 798.777 402.311 798.386 400.071C798.02 397.994 796.826 396.127 794.142 393.261C790.93 389.922 788.769 386.787 788.225 383.66C787.614 380.196 789.481 379.208 792.998 381.613C794.856 382.888 796.306 384.348 797.222 385.473L797.012 387.398C796.344 386.587 795.004 385.085 793.356 383.957C790.878 382.257 790.264 383.434 790.533 384.956C790.902 387.035 792.19 388.818 794.924 391.742C798.291 395.342 800.207 398.263 800.792 401.534C801.395 404.968 799.781 406.448 795.397 403.406C793.611 402.171 791.563 400.206 790.45 398.745L790.658 396.786Z" fill="#99928D"/>
<path d="M944.668 438.316L1041.49 433.717L1050.7 504.626L951.938 507.783L944.668 438.316Z" fill="#99928D"/>
<path d="M778.664 409.853L823.331 438.283L835.675 503.39L791.994 475.723L778.664 409.853Z" fill="#99928D"/>
<path d="M753.513 458.741L779.755 476.281L790.754 538.032L765.941 525.276L753.513 458.741Z" fill="#99928D"/>
<path d="M768.895 410.541L734.702 387.768L734.36 385.837L768.699 409.334L768.895 410.541Z" fill="#99928D"/>
<path d="M770.228 415.697L736.036 392.925L735.693 390.992L770.033 414.489L770.228 415.697Z" fill="#99928D"/>
<path d="M771.561 420.852L737.368 398.082L737.028 396.148L771.365 419.646L771.561 420.852Z" fill="#99928D"/>
<path d="M772.896 426.008L738.702 403.237L738.36 401.305L772.698 424.802L772.896 426.008Z" fill="#99928D"/>
<path d="M774.228 431.163L740.036 408.393L739.694 406.462L774.032 429.958L774.228 431.163Z" fill="#99928D"/>
<path d="M775.562 436.321L741.368 413.548L741.028 411.618L775.364 435.115L775.562 436.321Z" fill="#99928D"/>
<path d="M776.895 441.478L742.703 418.705L742.36 416.774L776.698 440.27L776.895 441.478Z" fill="#99928D"/>
<path d="M778.228 446.633L744.036 423.861L743.693 421.93L778.031 445.426L778.228 446.633Z" fill="#99928D"/>
<path d="M779.562 451.789L745.368 429.019L745.027 427.086L779.365 450.582L779.562 451.789Z" fill="#99928D"/>
<path d="M780.894 456.945L746.703 434.175L746.36 432.242L780.7 455.738L780.894 456.945Z" fill="#99928D"/>
<path d="M782.229 462.1L748.036 439.33L747.693 437.399L782.032 460.895L782.229 462.1Z" fill="#99928D"/>
<path d="M783.562 467.259L749.369 444.486L749.027 442.555L783.365 466.052L783.562 467.259Z" fill="#99928D"/>
<path d="M784.894 472.415L750.703 449.642L750.36 447.711L784.699 471.207L784.894 472.415Z" fill="#99928D"/>
<path d="M835 520.247L812.922 502.195L812.683 500.488L834.86 519.179L835 520.247Z" fill="#99928D"/>
<path d="M835.911 524.774L813.835 506.72L813.593 505.014L835.772 523.704L835.911 524.774Z" fill="#99928D"/>
<path d="M836.821 529.297L814.745 511.245L814.504 509.54L836.681 528.231L836.821 529.297Z" fill="#99928D"/>
<path d="M837.732 533.823L815.656 515.772L815.414 514.067L837.594 532.757L837.732 533.823Z" fill="#99928D"/>
<path d="M838.643 538.351L816.566 520.296L816.324 518.591L838.504 537.282L838.643 538.351Z" fill="#99928D"/>
<path d="M839.554 542.875L817.476 524.825L817.237 523.118L839.415 541.808L839.554 542.875Z" fill="#99928D"/>
<path d="M840.466 547.4L818.389 529.349L818.148 527.643L840.326 546.334L840.466 547.4Z" fill="#99928D"/>
<path d="M841.376 551.927L819.301 533.876L819.058 532.17L841.236 550.859L841.376 551.927Z" fill="#99928D"/>
<path d="M842.286 556.452L820.21 538.4L819.969 536.695L842.147 555.384L842.286 556.452Z" fill="#99928D"/>
<path d="M843.198 560.977L821.122 542.925L820.879 541.221L843.059 559.912L843.198 560.977Z" fill="#99928D"/>
<path d="M844.108 565.504L822.032 547.453L821.791 545.747L843.969 564.436L844.108 565.504Z" fill="#99928D"/>
<path d="M845.019 570.03L822.943 551.979L822.702 550.271L844.879 568.963L845.019 570.03Z" fill="#99928D"/>
<path d="M845.93 574.554L823.854 556.505L823.612 554.797L845.792 573.487L845.93 574.554Z" fill="#99928D"/>
<path d="M807.953 501.841L785.501 484.035L785.224 482.311L807.792 500.762L807.953 501.841Z" fill="#99928D"/>
<path d="M808.96 506.415L786.508 488.607L786.23 486.88L808.798 505.332L808.96 506.415Z" fill="#99928D"/>
<path d="M809.966 510.985L787.513 493.176L787.236 491.452L809.803 509.906L809.966 510.985Z" fill="#99928D"/>
<path d="M810.973 515.556L788.519 497.749L788.242 496.023L810.809 514.478L810.973 515.556Z" fill="#99928D"/>
<path d="M811.979 520.127L789.525 502.321L789.248 500.595L811.815 519.048L811.979 520.127Z" fill="#99928D"/>
<path d="M812.983 524.699L790.531 506.892L790.255 505.166L812.823 523.619L812.983 524.699Z" fill="#99928D"/>
<path d="M813.988 529.271L791.539 511.463L791.259 509.739L813.827 528.19L813.988 529.271Z" fill="#99928D"/>
<path d="M814.995 533.844L792.543 516.035L792.265 514.31L814.833 532.763L814.995 533.844Z" fill="#99928D"/>
<path d="M816 538.415L793.549 520.605L793.271 518.882L815.839 537.333L816 538.415Z" fill="#99928D"/>
<path d="M817.007 542.988L794.554 525.178L794.277 523.455L816.845 541.906L817.007 542.988Z" fill="#99928D"/>
<path d="M818.011 547.558L795.56 529.751L795.282 528.025L817.851 546.477L818.011 547.558Z" fill="#99928D"/>
<path d="M819.019 552.129L796.567 534.325L796.289 532.596L818.857 551.051L819.019 552.129Z" fill="#99928D"/>
<path d="M820.025 556.7L797.573 538.893L797.295 537.167L819.863 555.622L820.025 556.7Z" fill="#99928D"/>
<path d="M867.995 526.982L952.414 522.971L960.445 584.797L874.334 587.55L867.995 526.982Z" fill="#99928D"/>
<path d="M888.09 442.265L848.289 444.429L848.183 443.371L887.985 441.199L888.09 442.265Z" fill="#99928D"/>
<path d="M888.432 445.804L848.64 447.969L848.63 447.968L848.534 446.909L888.328 444.735L888.432 445.804Z" fill="#99928D"/>
<path d="M888.784 449.342L848.981 451.506L848.875 450.456L888.678 448.283L888.784 449.342Z" fill="#99928D"/>
<path d="M889.126 452.88L849.331 455.054L849.227 453.985L889.029 451.821L889.126 452.88Z" fill="#99928D"/>
<path d="M889.475 456.427L849.674 458.59L849.576 457.534L889.37 455.369L889.475 456.427Z" fill="#99928D"/>
<path d="M889.826 459.965L850.024 462.139L849.919 461.07L889.721 458.898L889.826 459.965Z" fill="#99928D"/>
<path d="M890.167 463.512L850.375 465.676L850.27 464.61L890.063 462.445L890.167 463.512Z" fill="#99928D"/>
<path d="M890.518 467.05L850.717 469.215L850.62 468.156L890.414 465.983L890.518 467.05Z" fill="#99928D"/>
<path d="M890.868 470.59L851.068 472.753L850.963 471.695L890.763 469.529L890.868 470.59Z" fill="#99928D"/>
<path d="M891.211 474.128L851.419 476.3L851.314 475.234L891.106 473.068L891.211 474.128Z" fill="#99928D"/>
<path d="M891.561 477.674L851.761 479.839L851.655 478.78L891.456 476.614L891.561 477.674Z" fill="#99928D"/>
<path d="M891.912 481.212L852.11 483.384L852.007 482.318L891.806 480.155L891.912 481.212Z" fill="#99928D"/>
<path d="M892.255 484.75L852.462 486.916L852.454 486.915L852.356 485.857L892.149 483.691L892.255 484.75Z" fill="#99928D"/>
<path d="M892.605 488.297L852.804 490.463L852.699 489.403L892.5 487.231L892.605 488.297Z" fill="#99928D"/>
<path d="M892.948 491.835L853.154 494.001L853.049 492.942L892.85 490.777L892.948 491.835Z" fill="#99928D"/>
<path d="M893.299 495.374L853.504 497.548L853.495 497.546L853.4 496.48L893.191 494.316L893.299 495.374Z" fill="#99928D"/>
<path d="M893.649 498.913L853.846 501.086L853.743 500.017L893.542 497.852L893.649 498.913Z" fill="#99928D"/>
<path d="M893.99 502.459L854.196 504.632L854.092 503.565L893.893 501.4L893.99 502.459Z" fill="#99928D"/>
<path d="M894.341 505.997L854.54 508.161L854.435 507.103L894.236 504.93L894.341 505.997Z" fill="#99928D"/>
<path d="M894.689 509.545L854.889 511.708L854.784 510.649L894.586 508.476L894.689 509.545Z" fill="#99928D"/>
<path d="M895.033 513.082L855.241 515.248L855.135 514.188L894.938 512.016L895.033 513.082Z" fill="#99928D"/>
<path d="M934.944 439.203L895.143 441.369L895.038 440.31L934.84 438.137L934.944 439.203Z" fill="#99928D"/>
<path d="M935.287 442.742L895.495 444.907L895.486 444.905L895.389 443.849L935.183 441.673L935.287 442.742Z" fill="#99928D"/>
<path d="M935.638 446.279L895.835 448.445L895.73 447.393L935.532 445.221L935.638 446.279Z" fill="#99928D"/>
<path d="M935.98 449.819L896.185 451.992L896.081 450.925L935.883 448.761L935.98 449.819Z" fill="#99928D"/>
<path d="M936.331 453.364L896.529 455.529L896.432 454.471L936.224 452.306L936.331 453.364Z" fill="#99928D"/>
<path d="M936.681 456.903L896.878 459.077L896.774 458.008L936.575 455.838L936.681 456.903Z" fill="#99928D"/>
<path d="M937.022 460.449L897.229 462.614L897.124 461.548L936.917 459.382L937.022 460.449Z" fill="#99928D"/>
<path d="M937.373 463.988L897.572 466.153L897.474 465.096L937.268 462.92L937.373 463.988Z" fill="#99928D"/>
<path d="M937.723 467.527L897.923 469.69L897.817 468.632L937.618 466.467L937.723 467.527Z" fill="#99928D"/>
<path d="M938.065 471.066L898.273 473.239L898.168 472.173L937.961 470.005L938.065 471.066Z" fill="#99928D"/>
<path d="M938.415 474.613L898.616 476.776L898.51 475.717L938.311 473.553L938.415 474.613Z" fill="#99928D"/>
<path d="M938.766 478.151L898.966 480.322L898.86 479.256L938.662 477.092L938.766 478.151Z" fill="#99928D"/>
<path d="M939.11 481.688L899.317 483.853L899.308 483.852L899.212 482.796L939.005 480.63L939.11 481.688Z" fill="#99928D"/>
<path d="M939.458 485.234L899.659 487.401L899.552 486.341L939.355 484.168L939.458 485.234Z" fill="#99928D"/>
<path d="M939.802 488.774L900.009 490.939L899.904 489.88L939.705 487.714L939.802 488.774Z" fill="#99928D"/>
<path d="M940.152 492.311L900.359 494.487H900.351L900.254 493.418L940.047 491.253L940.152 492.311Z" fill="#99928D"/>
<path d="M940.503 495.851L900.701 498.023L900.597 496.956L940.397 494.789L940.503 495.851Z" fill="#99928D"/>
<path d="M940.844 499.396L901.051 501.569L900.947 500.502L940.747 498.339L940.844 499.396Z" fill="#99928D"/>
<path d="M941.195 502.935L901.396 505.1L901.289 504.043L941.091 501.866L941.195 502.935Z" fill="#99928D"/>
<path d="M941.545 506.483L901.744 508.646L901.64 507.589L941.44 505.414L941.545 506.483Z" fill="#99928D"/>
<path d="M941.888 510.021L902.095 512.187L901.989 511.125L941.792 508.953L941.888 510.021Z" fill="#99928D"/>
<path d="M1053.89 516.24L1014.09 518.405L1013.99 517.345L1053.79 515.171L1053.89 516.24Z" fill="#99928D"/>
<path d="M1054.23 519.777L1014.44 521.943H1014.43L1014.34 520.884L1054.13 518.712L1054.23 519.777Z" fill="#99928D"/>
<path d="M1054.59 523.317L1014.78 525.482L1014.68 524.43L1054.48 522.26L1054.59 523.317Z" fill="#99928D"/>
<path d="M1054.93 526.854L1015.13 529.028L1015.03 527.961L1054.83 525.796L1054.93 526.854Z" fill="#99928D"/>
<path d="M1055.28 530.402L1015.48 532.566L1015.38 531.507L1055.17 529.342L1055.28 530.402Z" fill="#99928D"/>
<path d="M1055.63 533.94L1015.83 536.114L1015.72 535.045L1055.53 532.873L1055.63 533.94Z" fill="#99928D"/>
<path d="M1055.97 537.485L1016.18 539.653L1016.07 538.584L1055.87 536.418L1055.97 537.485Z" fill="#99928D"/>
<path d="M1056.32 541.026L1016.52 543.189L1016.42 542.132L1056.22 539.958L1056.32 541.026Z" fill="#99928D"/>
<path d="M1056.67 544.562L1016.87 546.728L1016.77 545.67L1056.57 543.505L1056.67 544.562Z" fill="#99928D"/>
<path d="M1057.01 548.101L1017.22 550.275L1017.12 549.207L1056.91 547.041L1057.01 548.101Z" fill="#99928D"/>
<path d="M1057.36 551.649L1017.56 553.814L1017.46 552.754L1057.26 550.589L1057.36 551.649Z" fill="#99928D"/>
<path d="M1057.72 555.187L1017.91 557.36L1017.81 556.292L1057.61 554.129L1057.72 555.187Z" fill="#99928D"/>
<path d="M1058.06 558.726L1018.27 560.89H1018.26L1018.16 559.831L1057.95 557.664L1058.06 558.726Z" fill="#99928D"/>
<path d="M1058.41 562.272L1018.61 564.435L1018.5 563.377L1058.3 561.205L1058.41 562.272Z" fill="#99928D"/>
<path d="M1058.75 565.809L1018.96 567.975L1018.85 566.916L1058.65 564.751L1058.75 565.809Z" fill="#99928D"/>
<path d="M1059.1 569.348L1019.31 571.521H1019.3L1019.2 570.456L1058.99 568.288L1059.1 569.348Z" fill="#99928D"/>
<path d="M1059.45 572.887L1019.65 575.06L1019.54 573.993L1059.35 571.828L1059.45 572.887Z" fill="#99928D"/>
<path d="M1059.79 576.434L1020 578.606L1019.9 577.541L1059.7 575.375L1059.79 576.434Z" fill="#99928D"/>
<path d="M1060.15 579.971L1020.34 582.137L1020.24 581.077L1060.04 578.904L1060.15 579.971Z" fill="#99928D"/>
<path d="M1060.49 583.519L1020.69 585.683L1020.59 584.623L1060.39 582.451L1060.49 583.519Z" fill="#99928D"/>
<path d="M1060.84 587.055L1021.04 589.222L1020.94 588.164L1060.74 585.99L1060.84 587.055Z" fill="#99928D"/>
<path d="M1005.09 518.348L965.296 520.514L965.189 519.455L1004.99 517.281L1005.09 518.348Z" fill="#99928D"/>
<path d="M1005.44 521.887L965.645 524.051L965.637 524.05L965.54 522.993L1005.33 520.819L1005.44 521.887Z" fill="#99928D"/>
<path d="M1005.79 525.425L965.988 527.589L965.88 526.538L1005.68 524.366L1005.79 525.425Z" fill="#99928D"/>
<path d="M1006.13 528.962L966.336 531.136L966.233 530.068L1006.03 527.904L1006.13 528.962Z" fill="#99928D"/>
<path d="M1006.48 532.508L966.681 534.675L966.583 533.615L1006.38 531.451L1006.48 532.508Z" fill="#99928D"/>
<path d="M1006.83 536.048L967.03 538.221L966.925 537.155L1006.73 534.982L1006.83 536.048Z" fill="#99928D"/>
<path d="M1007.17 539.594L967.38 541.759L967.277 540.692L1007.07 538.527L1007.17 539.594Z" fill="#99928D"/>
<path d="M1007.52 543.133L967.724 545.298L967.625 544.24L1007.42 542.066L1007.52 543.133Z" fill="#99928D"/>
<path d="M1007.88 546.672L968.074 548.838L967.969 547.777L1007.77 545.612L1007.88 546.672Z" fill="#99928D"/>
<path d="M1008.22 550.209L968.424 552.384L968.319 551.317L1008.11 549.15L1008.22 550.209Z" fill="#99928D"/>
<path d="M1008.57 553.757L968.766 555.921L968.661 554.861L1008.46 552.698L1008.57 553.757Z" fill="#99928D"/>
<path d="M1008.92 557.296L969.117 559.468L969.012 558.402L1008.81 556.236L1008.92 557.296Z" fill="#99928D"/>
<path d="M1009.26 560.832L969.469 563L969.459 562.998L969.362 561.938L1009.16 559.775L1009.26 560.832Z" fill="#99928D"/>
<path d="M1009.61 564.38L969.81 566.544L969.703 565.485L1009.51 563.313L1009.61 564.38Z" fill="#99928D"/>
<path d="M1009.95 567.917L970.161 570.084L970.054 569.025L1009.85 566.861L1009.95 567.917Z" fill="#99928D"/>
<path d="M1010.3 571.457L970.51 573.63L970.501 573.629L970.406 572.562L1010.2 570.398L1010.3 571.457Z" fill="#99928D"/>
<path d="M1010.66 574.994L970.853 577.168L970.748 576.101L1010.55 573.936L1010.66 574.994Z" fill="#99928D"/>
<path d="M1011 578.542L971.202 580.716L971.097 579.648L1010.9 577.484L1011 578.542Z" fill="#99928D"/>
<path d="M1011.35 582.079L971.546 584.245L971.44 583.186L1011.24 581.013L1011.35 582.079Z" fill="#99928D"/>
<path d="M1011.7 585.627L971.896 587.791L971.791 586.732L1011.59 584.559L1011.7 585.627Z" fill="#99928D"/>
<path d="M1012.04 589.166L972.246 591.329L972.141 590.272L1011.94 588.098L1012.04 589.166Z" fill="#99928D"/>
<path d="M742.415 400.26C738.482 396.864 730.051 390.771 724.414 390.831C717.003 390.907 714.138 400.457 719.539 402.336L721.886 403.37C728.874 406.989 759.349 414.89 742.415 400.26Z" fill="#FFA471"/>
<path d="M745.36 412.268C740.532 408.751 730.213 402.403 723.429 402.307C714.51 402.18 711.326 411.685 717.877 413.721L720.732 414.825C729.244 418.65 766.153 427.42 745.36 412.268Z" fill="#FFA471"/>
<path d="M738.721 420.694C734.864 418.62 723.263 414.987 719.257 416.681C713.985 418.91 716.997 427.96 721.435 428.171L725.018 429.608C731.126 431.005 755.337 429.631 738.721 420.694Z" fill="#FFA471"/>
<path d="M1085.87 466.911C1078.62 459.979 1060.96 459.333 1051.17 459.951C1043.42 460.438 1021.54 461.423 1020.53 468.431C1020.74 474.416 1053.07 470.922 1056.8 471.432C1051.47 473.012 1018.77 474.387 1018.91 482.046C1019.04 489.06 1052.98 485.245 1059 485.289C1051.62 486.566 1038.51 486.328 1032.71 491.219C1023.94 498.604 1047.75 497.909 1053.2 498.097C1058.39 498.28 1061.93 497.641 1065.44 501.341C1068.26 504.298 1068.93 509.563 1071.01 512.854C1077.22 522.682 1077.37 522.758 1087.38 523.555C1095.69 524.629 1103.86 516.237 1104.05 510.734C1104.05 510.734 1091.88 472.657 1085.87 466.911Z" fill="#FFA471"/>
<path d="M681.37 474.072C681.37 475.089 681.334 476.108 681.281 477.109C681.189 479.142 681.012 481.125 680.728 483.069C680.073 487.903 678.915 492.434 677.346 496.511C676.612 498.417 675.788 500.218 674.887 501.903C673.882 503.784 672.776 505.519 671.593 507.104H637.456C634.651 503.371 632.323 498.737 630.648 493.478C628.784 487.66 627.718 481.061 627.678 474.072H681.37Z" fill="#B26632"/>
<path d="M693.865 492.833C688.667 494.985 677.654 497.145 679.647 503.975C680.368 506.472 676.057 507.526 675.326 505.03C674.99 503.897 674.847 502.858 674.887 501.902C674.937 499.701 675.865 497.952 677.346 496.51C681.294 492.64 689.106 490.927 694.096 488.226C696.851 486.721 698.716 484.931 699.193 481.957C699.605 479.4 698.125 477.597 695.152 477.43C690.029 477.149 684.138 478.986 681.013 482.784C680.922 482.888 680.833 482.99 680.728 483.069C678.925 484.62 675.518 482.744 677.137 480.765C678.282 479.374 679.7 478.139 681.281 477.109C684.587 474.92 688.653 473.61 692.72 473.429C697.65 473.209 703.44 475.023 703.721 480.174C704.069 486.297 699.732 490.401 693.865 492.833Z" fill="white"/>
<path d="M703.721 480.174C703.44 475.023 697.65 473.209 692.72 473.429C688.653 473.61 684.587 474.92 681.281 477.109C681.334 476.108 681.37 475.089 681.37 474.072H665.467C665.224 478.987 663.898 483.567 661.544 486.555C654.478 495.472 641.74 496.073 630.648 493.478C632.324 498.738 634.652 503.372 637.456 507.104H671.593C672.775 505.519 673.882 503.783 674.887 501.903C674.848 502.859 674.99 503.897 675.326 505.031C676.057 507.527 680.369 506.473 679.647 503.976C677.654 497.146 688.667 494.985 693.865 492.834C699.732 490.401 704.069 486.297 703.721 480.174ZM699.192 481.957C698.716 484.931 696.85 486.721 694.095 488.226C689.105 490.927 681.293 492.64 677.345 496.51C678.914 492.433 680.072 487.903 680.727 483.068C680.832 482.989 680.921 482.887 681.012 482.783C684.137 478.985 690.028 477.148 695.151 477.429C698.124 477.598 699.604 479.4 699.192 481.957Z" fill="#773703"/>
<path d="M669.792 505.133H640.796V512.014H669.792V505.133Z" fill="#5B2700"/>
<path d="M489.624 932.984H473.148L456.189 531.27H501.392L489.624 932.984Z" fill="#474242"/>
<path d="M490.867 995.485C503.785 934.587 469.718 796.765 469.718 796.765C465.615 838.951 456.916 896.991 421.96 927.014C405.502 941.149 392.437 953.336 371.878 958.538C359.923 961.562 350.691 960.063 343.471 971.803C340.224 977.082 338.718 987.161 338.43 995.485H490.867Z" fill="#474242"/>
<path d="M490.867 995.485C464.909 912.151 492.373 807.983 492.373 807.983C496.476 850.169 503.572 896.991 538.529 927.014C554.987 941.149 568.052 953.336 588.611 958.538C600.567 961.562 609.799 960.063 617.018 971.803C620.264 977.082 621.771 987.161 622.059 995.485H490.867Z" fill="#474242"/>
<path d="M558.025 971.803C553.535 960.063 547.794 961.562 540.36 958.538C527.575 953.336 519.45 941.15 509.215 927.014C498.072 911.624 491.488 891.815 487.367 870.484H479.993C479.63 918.618 479.26 979.549 479.575 995.485H561.159C560.98 987.161 560.044 977.082 558.025 971.803Z" fill="#7F7C7C"/>
<path d="M742.292 518.583H218.195V561.857H742.292V518.583Z" fill="#474242"/>
<path d="M771.14 528.346C771.14 531.319 770.611 534.124 769.69 536.6H190.797C189.875 534.123 189.346 531.319 189.346 528.346C189.346 518.306 195.268 510.173 202.567 510.173H757.918C765.219 510.172 771.14 518.306 771.14 528.346Z" fill="#474242"/>
<path d="M535.537 528.346C535.537 531.319 535.007 534.124 534.086 536.6H190.797C189.875 534.123 189.346 531.319 189.346 528.346C189.346 518.306 195.268 510.173 202.567 510.173H522.315C529.615 510.172 535.537 518.306 535.537 528.346Z" fill="#7F7C7C"/>
</svg>
